<?xml version="1.0" encoding="UTF-8" standalone="no"?>
<!-- Created with Inkscape (http://www.inkscape.org/) -->

<svg
   version="1.1"
   id="svg2"
   width="679.58667"
   height="140.14667"
   viewBox="0 0 679.58667 140.14667"
   sodipodi:docname="SINTEF_logo-white.svg"
   xmlns:inkscape="http://www.inkscape.org/namespaces/inkscape"
   xmlns:sodipodi="http://sodipodi.sourceforge.net/DTD/sodipodi-0.dtd"
   xmlns="http://www.w3.org/2000/svg"
   xmlns:svg="http://www.w3.org/2000/svg">
  <defs
     id="defs6" />
  <sodipodi:namedview
     id="namedview4"
     pagecolor="#ffffff"
     bordercolor="#000000"
     borderopacity="0.25"
     inkscape:showpageshadow="2"
     inkscape:pageopacity="0.0"
     inkscape:pagecheckerboard="0"
     inkscape:deskcolor="#d1d1d1" />
  <g
     id="g8"
     inkscape:groupmode="layer"
     inkscape:label="ink_ext_XXXXXX"
     transform="matrix(1.3333333,0,0,-1.3333333,0,140.14667)">
    <g
       id="g10"
       transform="scale(0.1)">
      <path
         d="m 1963.19,650.637 c -112.34,38.738 -179.25,53.691 -245.05,53.691 -69.23,0 -119.48,-25.324 -119.48,-55.265 0,-90.665 389.71,-71.153 389.71,-280.684 0,-115.313 -114.82,-170.274 -287.26,-170.274 -135.02,0 -201.96,27.325 -279.09,58.125 v 129.415 c 111.17,-57.247 179.24,-77.481 264.34,-77.481 73.75,0 117.45,34.219 117.45,69.453 0,98.59 -387.72,62.477 -387.72,278.184 0,103.906 105.77,158.586 285.02,158.586 86.21,0 164.5,-14.074 262.08,-46.66 v -117.09"
         style="fill:#ffffff;fill-opacity:1;fill-rule:nonzero;stroke:none"
         id="path12" />
      <path
         d="m 2295.16,206.035 h -162.87 v 600.442 h 162.87 V 206.035"
         style="fill:#ffffff;fill-opacity:1;fill-rule:nonzero;stroke:none"
         id="path14" />
      <path
         d="m 2632.22,206.035 h -168.87 v 600.442 h 154.98 l 364.84,-375.133 v 375.133 h 162.86 V 206.035 H 3009.81 L 2632.22,600.773 V 206.035"
         style="fill:#ffffff;fill-opacity:1;fill-rule:nonzero;stroke:none"
         id="path16" />
      <path
         d="m 4467.78,206.035 h -518.16 v 600.442 h 518.71 V 702.434 H 4110.48 V 568.496 h 322.4 V 462.457 h -322.4 V 312.09 h 357.3 V 206.035"
         style="fill:#ffffff;fill-opacity:1;fill-rule:nonzero;stroke:none"
         id="path18" />
      <path
         d="M 5096.87,702.434 H 4734.66 V 560.598 h 323.96 V 454.527 H 4734.66 V 206.035 h -160.84 v 600.442 h 523.05 V 702.434"
         style="fill:#ffffff;fill-opacity:1;fill-rule:nonzero;stroke:none"
         id="path20" />
      <path
         d="m 511.113,87.7148 c 11.535,-0.4687 23.352,-0.7226 35.45,-0.7226 391.269,0 486.447,256.3668 486.447,467.7268 0,200.847 -85.936,442.32 -430.166,465.871 l -20.828,-57.254 c -11.532,0.48 -23.356,0.727 -35.453,0.727 -391.27,0 -486.4458,-256.352 -486.4458,-467.739 0,-200.836 85.9378,-442.3201 430.1958,-465.8552 z M 1093.13,525.527 C 1093.13,288.027 986.191,0 546.563,0 106.934,0 0,288.027 0,525.527 c 0,237.504 106.934,525.543 546.563,525.543 439.628,0 546.567,-288.039 546.567,-525.543"
         style="fill:#ffffff;fill-opacity:1;fill-rule:nonzero;stroke:none"
         id="path22" />
      <path
         d="M 532.453,827.266 C 267.297,821.191 202.227,643.375 202.227,496.324 c 0,-148.297 66.203,-327.926 337.144,-331.031 l 21.305,58.496 c 265.152,6.074 330.222,183.883 330.222,330.93 0,148.324 -66.195,327.933 -337.144,331.058 z m 429.5,-301.739 c 0,-175.742 -81.273,-388.906 -415.39,-388.906 -334.118,0 -415.391,213.164 -415.391,388.906 0,175.743 81.273,388.903 415.391,388.903 334.117,0 415.39,-213.16 415.39,-388.903"
         style="fill:#ffffff;fill-opacity:1;fill-rule:nonzero;stroke:none"
         id="path24" />
      <path
         d="m 581.758,281.797 34.41,94.492 c 27.934,76.754 12.262,127.301 -69.605,149.238 -81.864,21.93 -97.54,72.481 -69.606,149.25 l 34.41,94.481 c 11.223,0.836 22.946,1.273 35.196,1.273 215.414,0 267.824,-134.281 267.824,-245.004 0,-104.418 -46.649,-229.785 -232.629,-243.73"
         style="fill:#ffffff;fill-opacity:1;fill-rule:nonzero;stroke:none"
         id="path26" />
      <path
         d="M 3629.07,206.035 V 700.43 h 238.09 v 106.047 h -640 V 700.43 h 239.8 V 206.035 h 162.11"
         style="fill:#ffffff;fill-opacity:1;fill-rule:nonzero;stroke:none"
         id="path28" />
    </g>
  </g>
</svg>
